# xmcd
#
# Track frame offsets:
#	150
#	16031
#	39541
#	65690
#	105214
#	138096
#	159149
#	183415
#
# Disc length: 2724 seconds
#
# Revision: 0
# Processed by: cddbd v1.5.1PL0 Copyright (c) Steve Scherf et al.
# Submitted via: EasyCDDAExtractor 4.6.9.1
#
DISCID=540aa208
DTITLE=Camouflage - Me And You
DYEAR=2003
DGENRE=electronic
TTITLE0=Me And You (Radio Version)
TTITLE1=Me And You (F.E.O.S And Spiner Mode Downbeat Mix)
TTITLE2=Me And You (Kaycees Downbeat Mix)
TTITLE3=Me And You (Humate Mix)
TTITLE4=Me And You (Feos Tech Mix)
TTITLE5=Me And You (Smallboy Remix)
TTITLE6=Me And You (Warp Achts Elektronisher Pop Mix)
TTITLE7=Perfect (Huntemann And Bodzin Mix)
EXTD=
EXTT0=
EXTT1=
EXTT2=
EXTT3=
EXTT4=
EXTT5=
EXTT6=
EXTT7=
PLAYORDER=
